<svg width="158" height="53" viewBox="0 0 158 53" fill="none" xmlns="http://www.w3.org/2000/svg">
<path d="M0.499998 7C0.499998 3.13401 3.63401 0 7.5 0H150.5C154.366 0 157.5 3.13401 157.5 7V46C157.5 49.866 154.366 53 150.5 53H7.5C3.63401 53 0.499998 49.866 0.499998 46V7Z" fill="black"/>
<path d="M21.068 43.36C17.804 43.36 15.164 42.624 13.148 41.152C11.148 39.664 9.93198 37.568 9.49998 34.864L16.172 33.856C16.444 35.072 17.044 36.024 17.972 36.712C18.916 37.4 20.108 37.744 21.548 37.744C22.732 37.744 23.6439 37.52 24.2839 37.072C24.9239 36.608 25.2439 35.968 25.2439 35.152C25.2439 34.64 25.116 34.232 24.86 33.928C24.604 33.608 24.028 33.296 23.132 32.992C22.252 32.688 20.876 32.288 19.004 31.792C16.892 31.248 15.204 30.64 13.94 29.968C12.676 29.296 11.764 28.496 11.204 27.568C10.644 26.624 10.364 25.488 10.364 24.16C10.364 22.496 10.788 21.056 11.636 19.84C12.484 18.608 13.676 17.664 15.212 17.008C16.764 16.336 18.588 16 20.684 16C22.716 16 24.5159 16.312 26.0839 16.936C27.6519 17.56 28.9159 18.448 29.8759 19.6C30.8519 20.752 31.4519 22.112 31.6759 23.68L25.0039 24.88C24.8919 23.92 24.476 23.16 23.756 22.6C23.036 22.04 22.06 21.712 20.828 21.616C19.628 21.536 18.66 21.696 17.924 22.096C17.204 22.496 16.844 23.072 16.844 23.824C16.844 24.272 16.996 24.648 17.3 24.952C17.62 25.256 18.268 25.568 19.244 25.888C20.236 26.208 21.74 26.624 23.756 27.136C25.724 27.648 27.2999 28.248 28.4839 28.936C29.6839 29.608 30.5559 30.424 31.0999 31.384C31.6439 32.328 31.9159 33.472 31.9159 34.816C31.9159 37.472 30.9559 39.56 29.0359 41.08C27.1159 42.6 24.46 43.36 21.068 43.36Z" fill="#F4FF0A"/>
<path d="M77.3696 43.06C74.7616 43.06 72.4736 42.476 70.5056 41.308C68.5376 40.14 67.0016 38.532 65.8976 36.484C64.8096 34.42 64.2656 32.052 64.2656 29.38C64.2656 26.676 64.8256 24.3 65.9456 22.252C67.0656 20.188 68.6096 18.58 70.5776 17.428C72.5456 16.276 74.8096 15.7 77.3696 15.7C79.9776 15.7 82.2656 16.284 84.2336 17.452C86.2176 18.62 87.7616 20.236 88.8656 22.3C89.9696 24.348 90.5216 26.708 90.5216 29.38C90.5216 32.068 89.9616 34.444 88.8416 36.508C87.7376 38.556 86.1936 40.164 84.2096 41.332C82.2416 42.484 79.9616 43.06 77.3696 43.06ZM77.3696 36.964C79.4656 36.964 81.0256 36.26 82.0496 34.852C83.0896 33.428 83.6096 31.604 83.6096 29.38C83.6096 27.076 83.0816 25.236 82.0256 23.86C80.9856 22.484 79.4336 21.796 77.3696 21.796C75.9456 21.796 74.7776 22.116 73.8656 22.756C72.9536 23.396 72.2736 24.284 71.8256 25.42C71.3936 26.556 71.1776 27.876 71.1776 29.38C71.1776 31.7 71.6976 33.548 72.7376 34.924C73.7936 36.284 75.3376 36.964 77.3696 36.964Z" fill="#F4FF0A"/>
<path d="M106.604 43.288C103.996 43.288 101.708 42.704 99.74 41.536C97.772 40.368 96.236 38.76 95.132 36.712C94.044 34.648 93.5 32.28 93.5 29.608C93.5 26.904 94.06 24.528 95.18 22.48C96.3 20.416 97.844 18.808 99.812 17.656C101.78 16.504 104.044 15.928 106.604 15.928C109.212 15.928 111.5 16.512 113.468 17.68C115.452 18.848 116.996 20.464 118.1 22.528C119.204 24.576 119.756 26.936 119.756 29.608C119.756 32.296 119.196 34.672 118.076 36.736C116.972 38.784 115.428 40.392 113.444 41.56C111.476 42.712 109.196 43.288 106.604 43.288ZM106.604 37.192C108.7 37.192 110.26 36.488 111.284 35.08C112.324 33.656 112.844 31.832 112.844 29.608C112.844 27.304 112.316 25.464 111.26 24.088C110.22 22.712 108.668 22.024 106.604 22.024C105.18 22.024 104.012 22.344 103.1 22.984C102.188 23.624 101.508 24.512 101.06 25.648C100.628 26.784 100.412 28.104 100.412 29.608C100.412 31.928 100.932 33.776 101.972 35.152C103.028 36.512 104.572 37.192 106.604 37.192Z" fill="#F4FF0A"/>
<path d="M122.556 43V42.184L135.276 22.744H123.996V17.08H145.356V17.896L132.684 37.336H144.876V43H122.556Z" fill="#F4FF0A"/>
<path d="M54.712 30.82V43.06H61.336V28.516C61.336 28.084 61.304 27.396 61.24 26.452C61.176 25.508 60.992 24.468 60.688 23.332C60.384 22.18 59.872 21.076 59.152 20.02C58.448 18.964 57.456 18.092 56.176 17.404C54.896 16.716 53.24 16.372 51.208 16.372C48.664 16.372 46.552 16.924 44.872 18.028C43.208 19.132 44.872 18.028 42.808 19.5V8.50003H37V43.06H43.624V26.26C43.992 25.284 44.984 24.308 45.544 23.812C46.104 23.3 46.704 22.956 47.344 22.78C47.984 22.604 48.584 22.516 49.144 22.516C50.536 22.516 51.608 22.828 52.36 23.452C53.128 24.076 53.68 24.852 54.016 25.78C54.352 26.708 54.552 27.636 54.616 28.564C54.68 29.476 54.712 30.228 54.712 30.82Z" fill="#F4FF0A"/>
</svg>
