<svg width="52" height="56" viewBox="0 0 52 56" fill="none" xmlns="http://www.w3.org/2000/svg">
<path d="M0 6.99999C0 3.134 3.13401 0 7 0H44.4286C48.2946 0 51.4286 3.13401 51.4286 7V48.2857C51.4286 52.1517 48.2946 55.2857 44.4286 55.2857H7C3.13401 55.2857 0 52.1517 0 48.2857V6.99999Z" fill="black"/>
<path d="M26.8731 45.1771C22.6766 45.1771 19.2823 44.2309 16.6903 42.3383C14.1189 40.4251 12.5554 37.7303 12 34.2537L20.5783 32.9577C20.928 34.5211 21.6994 35.7451 22.8926 36.6297C24.1063 37.5143 25.6389 37.9566 27.4903 37.9566C29.0126 37.9566 30.1851 37.6686 31.008 37.0926C31.8309 36.496 32.2423 35.6731 32.2423 34.624C32.2423 33.9657 32.0777 33.4411 31.7486 33.0503C31.4194 32.6389 30.6789 32.2377 29.5269 31.8469C28.3954 31.456 26.6263 30.9417 24.2194 30.304C21.504 29.6046 19.3337 28.8229 17.7086 27.9589C16.0834 27.0949 14.9109 26.0663 14.1909 24.8731C13.4709 23.6594 13.1109 22.1989 13.1109 20.4914C13.1109 18.352 13.656 16.5006 14.7463 14.9371C15.8366 13.3531 17.3691 12.1394 19.344 11.296C21.3394 10.432 23.6846 10 26.3794 10C28.992 10 31.3063 10.4011 33.3223 11.2034C35.3383 12.0057 36.9634 13.1474 38.1977 14.6286C39.4526 16.1097 40.224 17.8583 40.512 19.8743L31.9337 21.4171C31.7897 20.1829 31.2549 19.2057 30.3291 18.4857C29.4034 17.7657 28.1486 17.344 26.5646 17.2206C25.0217 17.1177 23.7771 17.3234 22.8309 17.8377C21.9051 18.352 21.4423 19.0926 21.4423 20.0594C21.4423 20.6354 21.6377 21.1189 22.0286 21.5097C22.44 21.9006 23.2731 22.3017 24.528 22.7131C25.8034 23.1246 27.7371 23.6594 30.3291 24.3177C32.8594 24.976 34.8857 25.7474 36.408 26.632C37.9509 27.496 39.072 28.5451 39.7714 29.7794C40.4709 30.9931 40.8206 32.464 40.8206 34.192C40.8206 37.6069 39.5863 40.2914 37.1177 42.2457C34.6491 44.2 31.2343 45.1771 26.8731 45.1771Z" fill="#F4FF0A"/>
</svg>
