<svg width="100%" height="100%" viewBox="0 0 916 238" fill="none" xmlns="http://www.w3.org/2000/svg">
<path d="M76.9981 237.236C55.4753 237.236 37.9879 232.395 24.5361 222.712C11.0843 213.028 2.90559 199.418 0 181.881L39.7097 175.748C41.7544 184.356 46.2742 191.134 53.2692 196.083C60.2641 201.032 69.0885 203.507 79.7423 203.507C89.1048 203.507 96.3149 201.678 101.373 198.02C106.538 194.254 109.121 189.143 109.121 182.688C109.121 178.707 108.153 175.533 106.215 173.166C104.386 170.692 100.297 168.325 93.9474 166.065C87.5982 163.806 77.8591 160.955 64.7301 157.512C50.0945 153.639 38.4722 149.496 29.863 145.085C21.2539 140.566 15.066 135.241 11.2995 129.108C7.53301 122.975 5.64976 115.552 5.64976 106.837C5.64976 95.9701 8.50154 86.5021 14.2051 78.4329C19.9087 70.3636 27.8721 64.1771 38.0955 59.8735C48.3189 55.4623 60.3717 53.2567 74.254 53.2567C87.8134 53.2567 99.8124 55.3547 110.251 59.5507C120.797 63.7467 129.299 69.718 135.756 77.4645C142.213 85.211 146.194 94.3024 147.701 104.739L107.991 111.84C107.023 104.416 103.633 98.5522 97.8215 94.2486C92.118 89.945 84.4774 87.5242 74.8997 86.9863C65.7524 86.4483 58.3809 87.847 52.7849 91.1823C47.1889 94.41 44.391 98.9826 44.391 104.9C44.391 108.235 45.5209 111.087 47.7808 113.454C50.0407 115.821 54.5605 118.188 61.3402 120.555C68.2276 122.921 78.4509 125.826 92.0104 129.269C105.893 132.82 116.977 136.908 125.263 141.535C133.657 146.053 139.684 151.487 143.342 157.835C147.109 164.182 148.992 171.875 148.992 180.913C148.992 198.45 142.589 212.222 129.783 222.227C117.085 232.233 99.4896 237.236 76.9981 237.236Z" fill="#F4FF0A"/>
<path d="M463.439 237.236C446.006 237.236 430.778 233.309 417.757 225.455C404.735 217.601 394.62 206.788 387.41 193.017C380.307 179.138 376.756 163.214 376.756 145.247C376.756 126.956 380.415 110.925 387.732 97.1536C395.05 83.382 405.22 72.623 418.241 64.8765C431.262 57.13 446.328 53.2567 463.439 53.2567C480.98 53.2567 496.262 57.1838 509.283 65.0378C522.304 72.8919 532.42 83.7585 539.63 97.6377C546.84 111.409 550.445 127.279 550.445 145.247C550.445 163.322 546.787 179.299 539.469 193.178C532.259 206.95 522.143 217.762 509.121 225.617C496.1 233.363 480.873 237.236 463.439 237.236ZM463.439 200.763C478.936 200.763 490.45 195.599 497.983 185.27C505.516 174.941 509.283 161.6 509.283 145.247C509.283 128.355 505.463 114.906 497.822 104.9C490.181 94.7866 478.72 89.7298 463.439 89.7298C453.001 89.7298 444.391 92.0968 437.612 96.8308C430.94 101.457 425.989 107.966 422.761 116.359C419.532 124.643 417.918 134.272 417.918 145.247C417.918 162.138 421.739 175.641 429.379 185.754C437.127 195.76 448.481 200.763 463.439 200.763Z" fill="#F4FF0A"/>
<path d="M663.009 237.236C645.576 237.236 630.348 233.309 617.327 225.455C604.306 217.601 594.19 206.788 586.98 193.017C579.877 179.138 576.326 163.214 576.326 145.247C576.326 126.956 579.985 110.925 587.303 97.1536C594.62 83.382 604.79 72.623 617.811 64.8765C630.833 57.13 645.899 53.2567 663.009 53.2567C680.55 53.2567 695.832 57.1838 708.853 65.0378C721.874 72.8919 731.99 83.7585 739.2 97.6377C746.41 111.409 750.016 127.279 750.016 145.247C750.016 163.322 746.357 179.299 739.039 193.178C731.829 206.95 721.713 217.762 708.692 225.617C695.67 233.363 680.443 237.236 663.009 237.236ZM663.009 200.763C678.506 200.763 690.021 195.599 697.554 185.27C705.087 174.941 708.853 161.6 708.853 145.247C708.853 128.355 705.033 114.906 697.392 104.9C689.752 94.7866 678.291 89.7298 663.009 89.7298C652.571 89.7298 643.962 92.0968 637.182 96.8308C630.51 101.457 625.559 107.966 622.331 116.359C619.103 124.643 617.488 134.272 617.488 145.247C617.488 162.138 621.309 175.641 628.949 185.754C636.698 195.76 648.051 200.763 663.009 200.763Z" fill="#F4FF0A"/>
<path d="M763.134 232.395V227.069L855.467 92.1506H772.496V58.0983H916V63.5854L823.99 198.342H912.126V232.395H763.134Z" fill="#F4FF0A"/>
<path d="M304.931 148.474V232.395H344.318V135.079C344.318 130.883 343.941 125.45 343.188 118.779C342.542 112.001 341.035 104.846 338.668 97.3149C336.3 89.7836 332.641 82.6827 327.691 76.0121C322.741 69.3415 316.069 63.8543 307.675 59.5507C299.281 55.2471 288.627 53.0953 275.713 53.0953C259.356 53.0953 245.581 56.6996 234.389 63.9081C228.399 67.7086 223.18 72.2179 218.731 77.436V122.33H223.413V142.826C223.413 132.174 224.596 123.459 226.964 116.681C229.331 109.795 232.452 104.416 236.326 100.543C240.308 96.5618 244.72 93.7644 249.563 92.1506C254.406 90.5367 259.302 89.7298 264.252 89.7298C273.507 89.7298 280.825 91.7203 286.206 95.7011C291.694 99.682 295.783 104.793 298.474 111.033C301.272 117.165 303.047 123.567 303.801 130.238C304.554 136.908 304.931 142.987 304.931 148.474Z" fill="#F4FF0A"/>
<path d="M200.329 132.981L223.413 142.826V122.33H218.731V77.436C218.505 77.7021 218.28 77.9701 218.057 78.2399C214.484 82.5646 211.427 87.3628 208.885 92.6348C203.181 104.685 200.329 118.134 200.329 132.981Z" fill="#F4FF0A"/>
<path d="M223.413 142.826L200.329 132.981C200.329 118.134 203.181 104.685 208.885 92.6348C211.427 87.3628 214.484 82.5646 218.057 78.2399C218.28 77.9701 218.505 77.7021 218.731 77.436V-0.000488281H184.026V232.395H223.413V142.826Z" fill="#F4FF0A"/>
</svg>
