<svg width="100%" height="100%" viewBox="0 0 760 62" fill="none" xmlns="http://www.w3.org/2000/svg">
<path d="M13.6369 60.6508L0 15.9483L9.75246 16.031L18.4718 44.662L27.3151 16.031H35.7039L44.5059 44.662L53.2666 16.031H63.019L49.3821 60.6508H41.6132L31.4889 29.954L21.4058 60.6508H13.6369Z" fill="white"/>
<path d="M71.3032 9.25532V0.124762H81.2623V9.25532H71.3032ZM71.3032 60.6508V16.031H81.2623V60.6508H71.3032Z" fill="white"/>
<path d="M197.677 60.6508V1.15766H206.644L227.224 43.2986L247.803 1.15766H256.77V60.6508H247.472V22.5173L229.207 60.6508H225.24L207.016 22.5173V60.6508H197.677Z" fill="#F4FF0A"/>
<path d="M269.206 9.25532V0.124762H279.165V9.25532H269.206ZM269.206 60.6508V16.031H279.165V60.6508H269.206Z" fill="#F4FF0A"/>
<path d="M291.461 60.6508L291.544 1.15766H301.627V37.5145L317.95 16.031H330.388L313.074 38.3408L331.876 60.6508H318.694L301.627 39.1671V60.6508H291.461Z" fill="#F4FF0A"/>
<path d="M423.498 61.8902C419.145 61.8902 415.219 61.1329 411.72 59.618C408.249 58.1031 405.384 55.9409 403.125 53.1315C400.893 50.2945 399.475 46.9343 398.868 43.0507L409.199 41.4808C410.081 45.0063 411.886 47.7331 414.613 49.6611C417.368 51.5891 420.536 52.5531 424.117 52.5531C426.239 52.5531 428.236 52.2226 430.109 51.5616C431.983 50.9006 433.498 49.9365 434.655 48.6695C435.84 47.4025 436.432 45.8464 436.432 44.001C436.432 43.1747 436.294 42.4172 436.019 41.7286C435.743 41.0125 435.33 40.3791 434.779 39.8282C434.256 39.2773 433.567 38.7815 432.713 38.3408C431.886 37.8726 430.922 37.4732 429.82 37.1427L414.448 32.5981C413.125 32.2125 411.693 31.703 410.15 31.0695C408.635 30.4084 407.188 29.5133 405.811 28.384C404.461 27.2272 403.345 25.7674 402.464 24.0046C401.61 22.2143 401.183 20.0109 401.183 17.3943C401.183 13.5658 402.147 10.3571 404.075 7.76801C406.031 5.15142 408.648 3.19584 411.927 1.90131C415.233 0.606785 418.897 -0.0266836 422.919 0.000860831C426.996 0.0284019 430.633 0.730698 433.829 2.10786C437.024 3.45747 439.697 5.42682 441.845 8.01588C443.994 10.6049 445.509 13.7311 446.391 17.3943L435.688 19.2535C435.247 17.1602 434.393 15.3837 433.126 13.9239C431.886 12.4366 430.357 11.3073 428.539 10.5361C426.748 9.76487 424.834 9.35172 422.795 9.29664C420.811 9.26909 418.966 9.57208 417.258 10.2056C415.577 10.8115 414.213 11.6929 413.167 12.8497C412.147 14.0065 411.638 15.3561 411.638 16.8985C411.638 18.3583 412.078 19.5565 412.96 20.4929C413.842 21.4018 414.93 22.1318 416.224 22.6826C417.547 23.2059 418.883 23.6466 420.233 24.0046L430.895 26.9793C432.355 27.3649 433.994 27.8882 435.812 28.5493C437.63 29.2103 439.38 30.133 441.06 31.3173C442.741 32.5017 444.118 34.0579 445.193 35.9859C446.295 37.9139 446.846 40.3653 446.846 43.3399C446.846 46.4247 446.198 49.1377 444.903 51.4789C443.636 53.7925 441.914 55.7206 439.738 57.263C437.561 58.8054 435.068 59.9623 432.258 60.7335C429.476 61.5047 426.556 61.8902 423.498 61.8902Z" fill="#F4FF0A"/>
<path d="M475.171 61.8902C470.57 61.8902 466.645 60.8711 463.394 58.833C460.143 56.7672 457.65 53.9578 455.914 50.4047C454.206 46.8517 453.338 42.8304 453.311 38.3408C453.338 33.7687 454.234 29.7199 455.997 26.1943C457.788 22.6413 460.322 19.8594 463.601 17.8488C466.879 15.8106 470.777 14.7915 475.295 14.7915C480.364 14.7915 484.648 16.0722 488.147 18.6337C491.673 21.1677 493.974 24.6382 495.048 29.045L485.13 31.7305C484.359 29.3342 483.078 27.4751 481.287 26.153C479.496 24.8034 477.458 24.1286 475.171 24.1286C472.582 24.1286 470.447 24.7483 468.766 25.9877C467.086 27.1996 465.846 28.8798 465.047 31.0281C464.248 33.1765 463.848 35.6141 463.848 38.3408C463.848 42.5825 464.799 46.0116 466.7 48.6282C468.601 51.2448 471.424 52.5531 475.171 52.5531C477.816 52.5531 479.896 51.9471 481.411 50.7352C482.954 49.5233 484.111 47.7744 484.882 45.4883L495.048 47.7606C493.671 52.3052 491.26 55.8032 487.816 58.2546C484.373 60.6784 480.158 61.8902 475.171 61.8902Z" fill="#F4FF0A"/>
<path d="M624.032 61.8902C618.522 61.8902 614.046 60.6508 610.602 58.1719C607.158 55.6931 605.065 52.2088 604.321 47.7193L614.487 46.1493C615.01 48.3527 616.167 50.088 617.958 51.355C619.748 52.622 622.007 53.2554 624.735 53.2554C627.132 53.2554 628.977 52.7872 630.272 51.8508C631.595 50.8868 632.256 49.5784 632.256 47.9258C632.256 46.9068 632.008 46.0942 631.512 45.4883C631.044 44.8548 629.997 44.2488 628.371 43.6704C626.746 43.092 624.253 42.3622 620.892 41.4808C617.145 40.4892 614.17 39.4288 611.966 38.2995C609.762 37.1427 608.178 35.7793 607.214 34.2094C606.249 32.6394 605.767 30.7389 605.767 28.5079C605.767 25.7261 606.497 23.3023 607.957 21.2366C609.417 19.1708 611.456 17.5871 614.073 16.4854C616.69 15.3562 619.776 14.7915 623.33 14.7915C626.801 14.7915 629.873 15.3286 632.545 16.4028C635.245 17.477 637.421 19.0055 639.074 20.9887C640.727 22.9718 641.747 25.2992 642.132 27.9709L631.967 29.7887C631.719 27.8882 630.851 26.3871 629.363 25.2854C627.903 24.1837 625.947 23.5639 623.495 23.4262C621.153 23.2885 619.266 23.6466 617.834 24.5004C616.401 25.3267 615.685 26.4973 615.685 28.0122C615.685 28.866 615.974 29.5959 616.553 30.2018C617.131 30.8078 618.288 31.4138 620.024 32.0197C621.787 32.6257 624.404 33.3693 627.875 34.2507C631.429 35.1596 634.267 36.2063 636.388 37.3906C638.537 38.5474 640.08 39.9383 641.017 41.5634C641.981 43.1884 642.463 45.1578 642.463 47.4714C642.463 51.9609 640.824 55.4864 637.545 58.0479C634.295 60.6094 629.79 61.8902 624.032 61.8902Z" fill="#F4FF0A"/>
<path fill-rule="evenodd" clip-rule="evenodd" d="M534.198 39.1671V60.6508H544.281V35.738C544.281 34.6639 544.185 33.2729 543.992 31.5653C543.826 29.83 543.441 27.9984 542.835 26.0704C542.229 24.1424 541.292 22.3245 540.025 20.6168C538.757 18.9092 537.049 17.5045 534.9 16.4028C532.752 15.3011 530.024 14.7502 526.718 14.7502C522.531 14.7502 519.005 15.6729 516.139 17.5183C514.606 18.4912 513.27 19.6455 512.131 20.9814V1.15766H503.246V60.6508H513.329V37.7211C513.329 34.9944 513.632 32.7634 514.239 31.0281C514.845 29.2654 515.643 27.8882 516.635 26.8967C517.655 25.8776 518.784 25.1614 520.024 24.7483C521.264 24.3351 522.517 24.1286 523.784 24.1286C526.154 24.1286 528.027 24.6381 529.404 25.6572C530.809 26.6763 531.856 27.9847 532.545 29.5822C533.261 31.1521 533.716 32.7909 533.909 34.4986C534.102 36.2063 534.198 37.7624 534.198 39.1671ZM513.329 37.7211V32.4742H512.131V20.9814C512.073 21.0495 512.015 21.1181 511.958 21.1872C511.044 22.2943 510.261 23.5226 509.61 24.8723C508.15 27.9571 507.42 31.4 507.42 35.2009L513.329 37.7211Z" fill="#F4FF0A"/>
<path d="M507.42 35.2009L513.329 37.7211V32.4742H512.131V20.9814C512.073 21.0495 512.015 21.1181 511.958 21.1872C511.044 22.2943 510.261 23.5226 509.61 24.8723C508.15 27.9571 507.42 31.4 507.42 35.2009Z" fill="#F4FF0A"/>
<path fill-rule="evenodd" clip-rule="evenodd" d="M563.619 60.279C565.768 61.3807 568.495 61.9316 571.801 61.9316C575.988 61.9316 579.515 61.0226 582.38 59.2048C583.919 58.2137 585.255 57.0438 586.388 55.6951V60.6508H595.19V16.031H585.19V38.9606C585.19 41.6598 584.887 43.8908 584.281 45.6535C583.675 47.4163 582.862 48.8072 581.843 49.8263C580.851 50.8179 579.735 51.5203 578.495 51.9334C577.256 52.3466 576.002 52.5531 574.735 52.5531C572.366 52.5531 570.478 52.0436 569.073 51.0245C567.696 50.0054 566.649 48.7108 565.933 47.1409C565.244 45.5434 564.803 43.8908 564.61 42.1831C564.418 40.4479 564.321 38.8917 564.321 37.5145V16.031H554.238V40.9437C554.238 42.0179 554.321 43.4226 554.486 45.1578C554.679 46.8655 555.078 48.6833 555.684 50.6113C556.291 52.5393 557.227 54.3572 558.495 56.0649C559.762 57.7726 561.47 59.1773 563.619 60.279ZM585.19 38.9606V46.8104H586.388V55.6951C586.442 55.6313 586.495 55.5671 586.548 55.5024C587.456 54.3901 588.229 53.1591 588.868 51.8095C590.355 48.7246 591.099 45.2817 591.099 41.4808L585.19 38.9606Z" fill="#F4FF0A"/>
<path d="M591.099 41.4808L585.19 38.9606V46.8104H586.388V55.6951C586.442 55.6313 586.495 55.5671 586.548 55.5024C587.456 54.3901 588.229 53.1591 588.868 51.8095C590.355 48.7246 591.099 45.2817 591.099 41.4808Z" fill="#F4FF0A"/>
<path fill-rule="evenodd" clip-rule="evenodd" d="M668.994 61.3531C671.832 61.4357 674.724 61.2017 677.672 60.6508V52.3052C674.89 52.7183 672.41 52.8285 670.234 52.6357C668.057 52.4429 666.473 51.5202 665.482 49.8676C664.958 49.0138 664.669 47.9121 664.614 46.5624C664.586 45.2128 664.572 43.6429 664.572 41.8526V23.8394H677.672V16.031H664.572V3.63654H654.655V16.031H646.555V23.8394H654.655V42.431C654.655 44.9649 654.682 47.2373 654.737 49.2479C654.792 51.2586 655.33 53.2279 656.349 55.156C657.506 57.2768 659.2 58.833 661.432 59.8245C663.663 60.7885 666.184 61.298 668.994 61.3531ZM654.655 23.8394H664.572V16.031H654.655V23.8394Z" fill="#F4FF0A"/>
<path d="M654.655 23.8394H664.572V16.031H654.655V23.8394Z" fill="#F4FF0A"/>
<path fill-rule="evenodd" clip-rule="evenodd" d="M693.398 58.9569C696.814 60.9124 700.781 61.8902 705.299 61.8902C709.597 61.8902 713.523 60.7748 717.076 58.5438C720.658 56.3128 723.303 53.1866 725.011 49.1653L715.176 46.1906C714.211 48.2564 712.834 49.8401 711.043 50.9418C709.28 52.016 707.173 52.5531 704.721 52.5531C700.919 52.5531 698.026 51.3137 696.043 48.8348C694.485 46.888 693.539 44.3127 693.204 41.109H715.63H720.63H725.507C725.892 35.7656 725.3 31.1245 723.73 27.1859C722.159 23.2472 719.749 20.2037 716.498 18.0554C713.275 15.8795 709.349 14.7915 704.721 14.7915C700.34 14.7915 696.483 15.783 693.15 17.7661C689.816 19.7492 687.213 22.5449 685.34 26.153C683.466 29.7336 682.53 33.9615 682.53 38.8366C682.53 43.3537 683.48 47.3474 685.381 50.8179C687.309 54.2883 689.982 57.0013 693.398 58.9569ZM715.398 33.5897C715.038 30.6848 714.262 28.44 713.068 26.8554C711.388 24.6244 708.743 23.5089 705.134 23.5089C701.057 23.5089 698.026 24.7759 696.043 27.3098C694.768 28.92 693.903 31.0133 693.448 33.5897H689.927V41.109H693.204C693.199 41.0619 693.195 41.0147 693.19 40.9673C693.108 40.1338 693.067 39.2584 693.067 38.3408C693.067 36.6074 693.194 35.0237 693.448 33.5897H715.398Z" fill="#F4FF0A"/>
<path d="M689.927 33.5897V41.109H693.204C693.199 41.0619 693.195 41.0147 693.19 40.9673C693.108 40.1338 693.067 39.2584 693.067 38.3408C693.067 36.6074 693.194 35.0237 693.448 33.5897H689.927Z" fill="#F4FF0A"/>
<path fill-rule="evenodd" clip-rule="evenodd" d="M734.727 16.031V60.6508H744.727V37.969C744.727 36.2613 744.934 34.6776 745.347 33.2178C745.76 31.7305 746.394 30.4085 747.248 29.2517C748.13 28.0948 749.259 27.1445 750.637 26.4009C752.014 25.5746 753.557 25.0926 755.265 24.9549C757.001 24.8172 758.53 24.9411 759.852 25.3267V16.031C758.53 15.8106 757.166 15.7555 755.761 15.8657C754.356 15.9483 752.978 16.2099 751.628 16.6506C750.306 17.0638 749.094 17.6422 747.992 18.3859C746.697 19.1846 745.581 20.2037 744.645 21.4431C744.237 21.9869 743.865 22.5585 743.529 23.1578V16.031H734.727ZM743.529 26.8967V23.1578C743.491 23.2262 743.453 23.2951 743.415 23.3643C743.05 24.0391 742.73 24.7483 742.455 25.492L743.529 26.8967Z" fill="#F4FF0A"/>
<path d="M742.455 25.492L743.529 26.8967V23.1578C743.491 23.2262 743.453 23.2951 743.415 23.3643C743.05 24.0391 742.73 24.7483 742.455 25.492Z" fill="#F4FF0A"/>
<path fill-rule="evenodd" clip-rule="evenodd" d="M343.597 58.9569C347.013 60.9124 350.98 61.8902 355.498 61.8902C359.796 61.8902 363.722 60.7748 367.276 58.5438C370.857 56.3128 373.502 53.1866 375.21 49.1653L365.375 46.1906C364.411 48.2564 363.033 49.8401 361.242 50.9418C359.479 52.016 357.372 52.5531 354.92 52.5531C351.118 52.5531 348.225 51.3137 346.242 48.8348C344.684 46.888 343.738 44.3127 343.404 41.109H365.829V37.4732C365.822 36.1098 365.748 34.85 365.61 33.6936C365.606 33.6588 365.602 33.6242 365.597 33.5897H370.83V41.109H375.706C376.091 35.7656 375.499 31.1245 373.929 27.1859C372.358 23.2472 369.948 20.2037 366.697 18.0554C363.474 15.8795 359.548 14.7915 354.92 14.7915C350.539 14.7915 346.683 15.783 343.349 17.7661C340.016 19.7492 337.412 22.5449 335.539 26.153C333.666 29.7336 332.729 33.9615 332.729 38.8366C332.729 43.3537 333.679 47.3474 335.58 50.8179C337.509 54.2883 340.181 57.0013 343.597 58.9569ZM365.597 33.5897C365.238 30.6848 364.461 28.44 363.267 26.8554C361.587 24.6244 358.942 23.5089 355.333 23.5089C351.256 23.5089 348.225 24.7759 346.242 27.3098C344.967 28.92 344.103 31.0133 343.647 33.5897H365.597Z" fill="#F4FF0A"/>
<path d="M365.829 41.109H370.83V33.5897H365.597L365.61 33.6936C365.748 34.85 365.822 36.1098 365.829 37.4732V41.109Z" fill="#F4FF0A"/>
<path fill-rule="evenodd" clip-rule="evenodd" d="M111.121 61.3531C113.958 61.4357 116.851 61.2017 119.799 60.6508V52.3052C117.016 52.7183 114.537 52.8285 112.36 52.6357C110.184 52.4429 108.6 51.5202 107.608 49.8676C107.085 49.0138 106.796 47.9121 106.74 46.5624C106.713 45.2128 106.699 43.6429 106.699 41.8526V23.8394H119.799V16.031H106.699V3.63654H96.7813V16.031H88.6818V23.8394H96.7813V42.431C96.7813 44.9649 96.8089 47.2373 96.864 49.2479C96.9191 51.2586 97.4563 53.2279 98.4756 55.156C99.6327 57.2768 101.327 58.833 103.558 59.8245C105.79 60.7885 108.311 61.298 111.121 61.3531ZM96.7813 23.8394H106.699V16.031H96.7813V23.8394Z" fill="white"/>
<path d="M96.7813 23.8394H106.699V16.031H96.7813V23.8394Z" fill="white"/>
<path fill-rule="evenodd" clip-rule="evenodd" d="M160.265 39.1671V60.6508H170.348V35.738C170.348 34.6639 170.251 33.2729 170.058 31.5653C169.893 29.83 169.507 27.9984 168.901 26.0704C168.295 24.1424 167.359 22.3245 166.091 20.6168C164.824 18.9092 163.116 17.5045 160.967 16.4028C158.818 15.3011 156.091 14.7502 152.785 14.7502C148.597 14.7502 145.071 15.6729 142.206 17.5183C140.673 18.4912 139.336 19.6456 138.198 20.9814V1.15766H129.313V60.6508H139.396V37.7211C139.396 34.9944 139.699 32.7634 140.305 31.0281C140.911 29.2654 141.71 27.8882 142.702 26.8967C143.721 25.8776 144.851 25.1614 146.091 24.7483C147.33 24.3351 148.584 24.1286 149.851 24.1286C152.22 24.1286 154.094 24.6381 155.471 25.6572C156.876 26.6763 157.923 27.9847 158.612 29.5822C159.328 31.1521 159.782 32.7909 159.975 34.4986C160.168 36.2063 160.265 37.7624 160.265 39.1671ZM139.396 37.7211V32.4742H138.198V20.9814C138.14 21.0495 138.082 21.1181 138.025 21.1872C137.11 22.2943 136.328 23.5226 135.677 24.8723C134.217 27.9571 133.487 31.4 133.487 35.2009L139.396 37.7211Z" fill="white"/>
<path d="M133.487 35.2009L139.396 37.7211V32.4742H138.198V20.9814C138.14 21.0495 138.082 21.1181 138.025 21.1872C137.11 22.2943 136.328 23.5226 135.677 24.8723C134.217 27.9571 133.487 31.4 133.487 35.2009Z" fill="white"/>
</svg>
